HIERARCHY
ROOT root
{
	OFFSET 0.000000 0.000000 0.000000
	CHANNELS 6 Xposition Yposition Zposition Zrotation Yrotation Xrotation
	JOINT lhip
	{
		OFFSET 0.058581 -0.082280 -0.017664
		CHANNELS 3 Zrotation Yrotation Xrotation
		JOINT lknee
		{
			OFFSET 0.043451 -0.386469 0.008037
			CHANNELS 3 Zrotation Yrotation Xrotation
			JOINT lankle
			{
				OFFSET -0.014790 -0.426874 -0.037428
				CHANNELS 3 Zrotation Yrotation Xrotation
				JOINT ltoe
				{
					OFFSET 0.041054 -0.060286 0.122042
					CHANNELS 3 Zrotation Yrotation Xrotation
					End Site
					{
						OFFSET 0.000000 0.000000 0.000000
					}
				}
			}
		}
	}
	JOINT rhip
	{
		OFFSET -0.060310 -0.090513 -0.013543
		CHANNELS 3 Zrotation Yrotation Xrotation
		JOINT rknee
		{
			OFFSET -0.043257 -0.383688 -0.004843
			CHANNELS 3 Zrotation Yrotation Xrotation
			JOINT rankle
			{
				OFFSET 0.019056 -0.420046 -0.034562
				CHANNELS 3 Zrotation Yrotation Xrotation
				JOINT rtoe
				{
					OFFSET -0.034840 -0.062106 0.130323
					CHANNELS 3 Zrotation Yrotation Xrotation
					End Site
					{
						OFFSET 0.000000 0.000000 0.000000
					}
				}
			}
		}
	}
	JOINT lowerback
	{
		OFFSET 0.004439 0.124404 -0.038385
		CHANNELS 3 Zrotation Yrotation Xrotation
		JOINT upperback
		{
			OFFSET 0.004488 0.137956 0.026820
			CHANNELS 3 Zrotation Yrotation Xrotation
			JOINT chest
			{
				OFFSET -0.002265 0.056032 0.002855
				CHANNELS 3 Zrotation Yrotation Xrotation
				JOINT lowerneck
				{
					OFFSET -0.013390 0.211636 -0.033468
					CHANNELS 3 Zrotation Yrotation Xrotation
					JOINT upperneck
					{
						OFFSET 0.010113 0.088937 0.050410
						CHANNELS 3 Zrotation Yrotation Xrotation
						End Site
						{
							OFFSET 0.000000 0.000000 0.000000
						}
					}
				}
				JOINT lclavicle
				{
					OFFSET 0.071702 0.114000 -0.018898
					CHANNELS 3 Zrotation Yrotation Xrotation
					JOINT lshoulder
					{
						OFFSET 0.122921 0.045205 -0.019046
						CHANNELS 3 Zrotation Yrotation Xrotation
						JOINT lelbow
						{
							OFFSET 0.255332 -0.015649 -0.022946
							CHANNELS 3 Zrotation Yrotation Xrotation
							JOINT lwrist
							{
								OFFSET 0.265709 0.012698 -0.007375
								CHANNELS 3 Zrotation Yrotation Xrotation
								End Site
								{
									OFFSET 0.000000 0.000000 0.000000
								}
							}
						}
					}
				}
				JOINT rclavicle
				{
					OFFSET -0.082954 0.112472 -0.023707
					CHANNELS 3 Zrotation Yrotation Xrotation
					JOINT rshoulder
					{
						OFFSET -0.113228 0.046853 -0.008472
						CHANNELS 3 Zrotation Yrotation Xrotation
						JOINT relbow
						{
							OFFSET -0.260127 -0.014369 -0.031269
							CHANNELS 3 Zrotation Yrotation Xrotation
							JOINT rwrist
							{
								OFFSET -0.269108 0.006794 -0.006027
								CHANNELS 3 Zrotation Yrotation Xrotation
								End Site
								{
									OFFSET 0.000000 0.000000 0.000000
								}
							}
						}
					}
				}
			}
		}
	}
}
MOTION
Frames: 16
Frame Time: 0.033333
0.139525 0.496322 0.900262 85.707784 2.176443 86.460275 -3.080381 -3.477276 -26.571937 -13.931093 2.152186 50.243123 7.199992 19.111975 -28.296011 0.000000 -0.000000 0.000000 -7.285434 -2.216990 -44.167225 6.851094 -5.755943 20.909521 2.919189 -9.499062 37.405685 0.000000 -0.000000 0.000000 0.540888 -1.454706 34.318426 1.647444 -3.240173 14.363818 -1.686089 1.330621 -6.500237 -5.261109 -5.538572 18.553965 2.711738 1.510212 3.826372 -17.470907 -10.006242 10.104173 -12.506922 -0.620229 17.317694 -39.631149 -43.284861 38.878628 -14.940439 -25.504778 -20.991512 9.972988 10.121226 11.591250 17.118899 -9.324914 7.286446 47.333128 49.512065 57.377846 14.306124 7.788756 2.207298 
0.138482 0.496044 0.900092 86.144099 2.231032 86.878113 -3.163936 -3.855619 -27.186429 -13.605127 2.032295 50.408800 7.235820 19.024194 -28.150440 0.000000 -0.000000 0.000000 -7.445965 -2.475454 -44.481506 6.859552 -5.861006 20.758773 3.061774 -9.492230 37.588464 0.000000 -0.000000 0.000000 0.596773 -1.592106 34.362624 1.745260 -3.432361 14.148142 -1.644129 1.214624 -6.647768 -5.459793 -5.251258 18.848332 3.022702 1.523656 3.590865 -17.068099 -9.424242 10.314923 -12.483571 0.006778 17.278086 -39.135088 -42.105157 38.788105 -17.372412 -25.782224 -19.401402 9.752315 9.583972 11.570753 16.609112 -9.527674 7.546487 47.131910 49.006031 57.413072 16.343878 7.980277 2.134051 
0.138281 0.495802 0.899950 86.426158 2.245419 87.064987 -3.182944 -4.190789 -27.492846 -13.647764 1.865977 50.578164 7.247979 19.237380 -28.111985 0.000000 -0.000000 0.000000 -7.571120 -2.557149 -44.642648 6.883130 -5.879726 20.806410 3.124528 -9.514645 37.328544 0.000000 -0.000000 0.000000 0.696918 -1.653964 34.328664 1.778585 -3.492558 14.301620 -1.671848 1.117004 -6.719271 -5.581773 -5.374966 19.008947 2.743288 1.471892 3.625281 -16.859832 -8.969091 10.369130 -12.137669 0.587814 17.218006 -38.937365 -40.881798 38.385973 -18.488183 -25.769050 -18.366616 9.616408 9.258952 11.498652 16.188179 -10.005956 7.836196 46.730651 48.222007 57.031608 16.601515 7.771346 3.147352 
0.137879 0.495601 0.899804 86.579395 2.202762 87.021556 -3.235902 -4.481128 -27.526415 -13.618613 1.796623 50.666381 7.203779 19.433289 -28.067070 0.000000 -0.000000 0.000000 -7.690664 -2.442853 -44.623579 6.814852 -5.825687 20.900491 2.995736 -9.393780 37.257774 0.000000 -0.000000 0.000000 0.682376 -1.665609 34.359483 1.727138 -3.590115 15.141145 -1.691269 1.076213 -7.293689 -5.538561 -5.002511 19.540883 2.663008 1.332913 2.733449 -16.576863 -8.596324 10.437071 -11.693175 1.323309 17.164620 -38.667027 -40.101691 37.854457 -20.342708 -26.191000 -17.100884 9.321397 9.266462 11.452780 15.977928 -10.545568 8.289575 46.105372 47.505135 56.713134 18.214316 7.934587 3.659978 
0.137343 0.495058 0.899675 86.631313 2.115097 86.687735 -3.374290 -4.427913 -27.189815 -13.842987 1.523445 50.643984 7.239399 19.685206 -28.078754 0.000000 -0.000000 0.000000 -7.592399 -2.384525 -44.409447 6.756946 -5.130114 21.145835 2.970888 -9.461855 37.138895 0.000000 -0.000000 0.000000 0.798845 -1.502542 34.014767 1.538269 -3.376492 14.975986 -1.763493 1.180140 -5.345617 -6.129047 -5.646791 19.650766 3.645450 1.722224 1.695687 -16.697706 -9.177404 10.861898 -10.316794 2.085640 16.434960 -39.154218 -40.065938 37.909221 -18.801175 -25.321931 -16.726647 9.315634 9.226535 11.615399 15.563448 -11.205108 7.123007 46.201416 46.429469 56.838290 17.539626 7.441363 4.390488 
0.137249 0.494343 0.899038 86.628750 2.043001 86.674077 -3.389694 -4.259366 -27.204591 -13.946217 1.459658 50.635993 7.186727 19.677949 -28.093139 0.000000 -0.000000 0.000000 -7.637844 -2.243623 -44.476368 6.738780 -4.940582 21.194911 2.836677 -9.450998 37.029502 0.000000 -0.000000 0.000000 0.936363 -1.442437 34.436253 1.437922 -3.160463 14.821539 -1.933360 0.935595 -5.761785 -5.828241 -5.479698 19.961010 3.191801 1.469460 1.968989 -16.234855 -8.527576 10.518421 -9.946945 2.593895 16.783261 -38.760688 -39.613396 37.786929 -20.452044 -25.433455 -15.867939 9.186246 8.777780 11.243521 15.027178 -11.382647 8.192265 45.899506 45.380209 57.056021 18.752368 7.118153 4.646036 
0.137051 0.493879 0.898956 86.675012 1.970998 86.430736 -3.504458 -4.184472 -26.996321 -14.115877 1.251179 50.716573 7.160474 19.989541 -27.998672 0.000000 -0.000000 0.000000 -7.623561 -2.383942 -44.237383 6.891800 -4.727107 21.215492 2.839595 -9.750314 36.938656 0.000000 -0.000000 0.000000 1.015973 -1.520664 34.163703 1.199981 -3.089677 14.893387 -2.084906 1.081253 -4.646530 -6.189627 -5.653812 20.036572 3.657530 1.567519 1.858860 -16.152394 -8.728025 10.774638 -8.863782 3.258394 16.196028 -39.244700 -39.251795 37.431263 -18.013087 -24.613179 -15.853720 9.001423 9.088990 11.613093 15.000968 -11.816590 7.443901 45.598467 43.783481 56.387341 16.863345 6.917751 5.624446 
0.137296 0.493520 0.898741 86.526289 1.896900 86.290718 -3.550529 -4.076868 -26.758571 -14.005208 1.303025 50.569295 7.144292 19.996122 -28.010197 0.000000 -0.000000 0.000000 -7.551646 -2.471626 -44.129069 6.937215 -4.695769 21.230514 2.918218 -9.702776 36.963073 0.000000 -0.000000 0.000000 0.951071 -1.467140 34.265219 1.115422 -2.997829 15.250179 -2.144176 1.137055 -4.704488 -6.383896 -5.455658 20.574856 3.743930 1.536584 1.279506 -15.898362 -8.397937 10.894909 -8.611579 3.657133 15.889888 -38.615460 -38.523420 37.063126 -20.001632 -24.787512 -14.589457 8.656506 8.962959 11.798932 15.107879 -11.976812 7.230321 44.647830 42.878742 56.158597 18.602875 6.739838 6.102563 
0.137075 0.493087 0.898591 86.555939 1.877242 86.299535 -3.608569 -4.270058 -26.817475 -13.946149 1.228455 50.652522 7.088756 20.162955 -27.979353 0.000000 -0.000000 0.000000 -7.540864 -2.479545 -44.161591 6.915754 -4.589387 21.220013 2.928166 -9.728624 37.043837 0.000000 -0.000000 0.000000 1.060996 -1.499759 34.125260 1.061495 -2.975171 15.433477 -2.272977 1.113366 -4.353850 -6.768860 -5.454294 21.250501 3.984353 1.655634 0.075953 -15.704286 -8.043709 10.790397 -7.874375 3.833054 15.732870 -38.754818 -37.630214 37.120754 -19.962406 -24.643354 -13.983200 8.380542 8.752090 11.742523 14.880764 -11.866467 7.194590 44.141610 41.509273 56.258371 18.351568 6.445038 6.980987 
0.136329 0.492446 0.898668 86.577612 1.975173 86.198362 -3.634422 -4.170120 -26.798216 -13.942355 0.881814 50.768140 7.121983 20.317138 -27.859102 0.000000 -0.000000 0.000000 -7.468565 -2.314333 -44.075961 6.905894 -4.355440 21.117238 2.951824 -9.781614 37.137960 0.000000 -0.000000 0.000000 1.128905 -1.650541 34.040493 1.003400 -2.900293 16.368850 -2.374103 1.116446 -4.759506 -6.719892 -5.360534 21.211172 3.694548 1.658325 -0.039706 -15.532594 -7.896750 10.692717 -7.182162 4.407193 15.669639 -38.542538 -37.031491 36.960301 -20.776605 -24.635446 -13.147976 8.348981 8.730920 11.968605 14.339570 -11.936204 7.254358 43.678535 40.651856 55.878216 18.842224 6.296650 7.523432 
0.136108 0.492032 0.898650 86.710360 1.974595 86.112674 -3.756051 -4.300067 -26.704298 -13.814524 0.706581 50.793008 7.066389 20.399409 -27.887150 0.000000 -0.000000 0.000000 -7.499000 -2.426568 -43.946524 6.949373 -4.388035 21.091650 2.881778 -9.729208 37.206723 0.000000 -0.000000 0.000000 1.177860 -1.641781 33.916221 1.070969 -2.933232 16.659410 -2.306571 1.010613 -4.286934 -6.862286 -5.296670 21.207216 3.420305 1.749422 -0.291480 -15.477604 -7.569138 10.599563 -6.686253 4.682185 15.364755 -38.045821 -36.439960 36.700554 -20.864601 -23.794509 -11.463747 8.319501 8.555569 11.926949 13.644489 -11.997870 7.312089 43.166306 39.844331 55.305267 18.846566 6.180674 7.797594 
0.135888 0.491600 0.898426 86.846232 2.003667 85.960771 -3.846477 -4.500292 -26.512571 -14.031259 0.290959 50.741295 6.895670 20.897996 -27.784243 0.000000 -0.000000 0.000000 -7.443472 -2.631549 -43.700270 7.055285 -4.293639 20.900261 2.891957 -9.937875 37.251227 0.000000 -0.000000 0.000000 1.167697 -1.710431 33.695142 1.024713 -3.066582 16.691321 -2.172782 1.151209 -3.345863 -7.216929 -5.298354 21.246851 3.882005 1.895435 -0.700948 -15.252352 -7.701758 10.777061 -6.185028 4.994337 14.719598 -37.910164 -35.560795 36.206359 -20.843130 -22.992497 -10.119259 8.120863 8.785273 12.215567 13.243958 -12.174444 6.545445 42.843707 38.808143 54.129331 18.781361 5.766186 8.768109 
0.135632 0.491119 0.898489 86.822999 1.990353 85.941790 -3.799374 -4.442919 -26.514701 -14.117282 0.274404 50.756830 6.751764 20.850588 -27.802211 0.000000 -0.000000 0.000000 -7.328072 -2.695370 -43.731858 7.025893 -4.245097 20.932417 2.919752 -10.008446 37.236992 0.000000 -0.000000 0.000000 1.039168 -1.631134 33.825315 1.033321 -3.067260 16.684297 -2.006687 1.164619 -3.184777 -7.239645 -5.049067 21.773935 4.084419 1.794960 -1.841807 -14.712959 -7.617987 10.822960 -6.462882 5.450038 14.082609 -37.085925 -34.609663 35.085625 -21.585470 -22.563342 -8.911142 7.797127 8.829815 12.343387 13.356035 -12.353953 6.112312 42.066889 37.658676 53.599505 19.237890 5.496030 9.873959 
0.134687 0.490613 0.897889 86.801914 1.995500 86.020024 -3.628121 -4.367195 -26.696106 -14.195498 0.459353 50.822535 6.888616 20.760762 -27.839539 0.000000 -0.000000 0.000000 -7.227404 -2.693816 -44.022806 7.003540 -4.169581 21.117223 2.955193 -10.041834 37.285731 0.000000 -0.000000 0.000000 1.088474 -1.631105 33.888681 1.062181 -2.985066 16.881797 -2.129516 0.969446 -3.462550 -6.899651 -4.856603 21.753584 3.698632 1.490093 -1.360360 -14.149374 -7.294356 10.732542 -6.251001 5.760945 13.993566 -36.457040 -34.151242 34.849269 -21.296243 -22.230032 -8.394302 7.510506 8.589105 12.356292 13.436323 -12.258664 6.252742 41.284515 37.054588 53.216184 18.865818 5.513064 9.508955 
0.134838 0.489881 0.897295 86.710549 1.889402 85.847287 -3.685520 -4.110437 -26.503414 -14.243768 0.435612 50.881331 6.978650 20.680237 -27.929719 0.000000 -0.000000 0.000000 -7.326045 -2.566002 -44.024511 7.117222 -4.061068 21.468533 2.738199 -9.738764 37.054719 0.000000 -0.000000 0.000000 0.961773 -1.466243 33.802162 1.141052 -2.958917 18.074154 -2.213390 0.793414 -4.283876 -6.305485 -4.590618 21.689415 3.123802 0.910903 -1.271031 -13.644065 -6.915707 10.369712 -6.023705 5.748182 13.870806 -35.779908 -33.316699 33.842112 -21.904059 -22.177499 -7.165558 7.285810 8.481147 12.207381 13.395695 -12.260376 6.906354 40.427111 36.451652 52.676867 18.870843 5.749609 9.866585 
0.134988 0.489367 0.897175 86.697661 1.868201 85.697002 -3.610250 -4.028312 -26.389273 -14.296152 0.560878 50.956351 6.819094 20.482321 -27.992132 0.000000 -0.000000 0.000000 -7.318821 -2.586977 -43.847875 7.098467 -4.080934 21.453120 2.909298 -9.673359 36.927686 0.000000 -0.000000 0.000000 0.771677 -1.482511 33.869767 1.118966 -3.016102 18.096026 -2.110134 0.847524 -4.153766 -6.281229 -4.245530 22.160854 3.191580 0.741728 -1.425548 -13.360757 -6.621811 10.112279 -5.461197 5.994688 13.805252 -35.375073 -32.957134 33.360106 -22.514330 -22.275488 -6.603366 7.326042 8.609087 12.640317 12.843539 -12.277489 6.878079 40.040370 35.869363 51.896634 19.427180 5.841671 9.683855 
